# xmcd
#
# Track frame offsets:
#	150
#	21515
#	39865
#	54894
#	74907
#	92571
#	109333
#	126788
#	144370
#	159424
#	177708
#	195878
#	212050
#	227652
#	245649
#	258943
#
# Disc length: 3744 seconds
#
# Revision: 6
# Processed by: cddbd v1.5.2PL0 Copyright (c) Steve Scherf et al.
# Submitted via: EasyCDDAExtractor 15.3.0.1
#
DISCID=e00e9e10
DTITLE=Jennifer Lopez - Love (Deluxe Edition)
DYEAR=2011
DGENRE=Pop
TTITLE0=On The Floor (Featuring Pitbull)
TTITLE1=Good Hit
TTITLE2=I'm Into You (Featuring Lil Wayne)
TTITLE3=(What Is) Love
TTITLE4=Run The World
TTITLE5=Papi
TTITLE6=Until It Beats No More
TTITLE7=One Love
TTITLE8=Invading My Mind
TTITLE9=Villian
TTITLE10=Starting Over
TTITLE11=Hypnotico (Bonus Track)
TTITLE12=Everybody's Girl (Bonus Track)
TTITLE13=Charge Me Up (Bonus Track)
TTITLE14=Take Care (Bonus Track)
TTITLE15=On The Floor (Ven A Bailar) (Featuring Pitbull) (Bonus Track)
EXTD=
EXTT0=
EXTT1=
EXTT2=
EXTT3=
EXTT4=
EXTT5=
EXTT6=
EXTT7=
EXTT8=
EXTT9=
EXTT10=
EXTT11=
EXTT12=
EXTT13=
EXTT14=
EXTT15=
PLAYORDER=
